# xmcd
#
# Track frame offsets: 
#        225
#        29831
#        52797
#        79591
#        103164
#        132335
#        156075
#        182074
#        220217
#        237200
#        257913
#
# Disc length: 3742 seconds
#
# Revision: 1
# Processed by: cddbd v1.5.1PL0 Copyright (c) Steve Scherf et al.
# Submitted via: ExactAudioCopy v0.95a5
#
DISCID=960e9b0b
DTITLE=Enrico Rava - Full of Life
DYEAR=2003
DGENRE=Jazz
TTITLE0=Recuerdos
TTITLE1=The Surrey with the Fringe on top
TTITLE2=Mystère
TTITLE3=Miss MG
TTITLE4=Moonlight in Vermont
TTITLE5=Boston April 15th
TTITLE6=Happiness is to win a Big Prize in Cash
TTITLE7=Nature Boy
TTITLE8=Full of Life
TTITLE9=Visions
TTITLE10=Miss MG (Alternative take)
EXTD=YEAR: 2003
EXTT0=
EXTT1=
EXTT2=
EXTT3=
EXTT4=
EXTT5=
EXTT6=
EXTT7=
EXTT8=
EXTT9=
EXTT10=
PLAYORDER=
